<svg id="Layer_1" height="512" viewBox="0 0 128 128" width="512" xmlns="http://www.w3.org/2000/svg" data-name="Layer 1"><path d="m35.411 81.905a12.506 12.506 0 0 1 -12.492-12.492 1.75 1.75 0 0 0 -3.5 0 16.01 16.01 0 0 0 15.992 15.992 1.75 1.75 0 0 0 0-3.5z"/><path d="m90.434 43.458a13.46 13.46 0 0 0 -2.529.25c-3.69-11.339-11.74-22.937-21.514-22.937-5.927 0-14.572 5.161-20.254 19.458-3.391-3.137-7.046-4.808-10.725-4.808-6.091 0-12.123 4.553-16.985 12.82-4.041 6.871-6.652 15.471-6.652 21.911a23.635 23.635 0 0 0 46.085 7.392 23.3 23.3 0 0 0 6.893 1.535c-.071.82-.111 1.611-.111 2.358a25.793 25.793 0 1 0 51.586 0c-.001-13.001-10.894-37.979-25.794-37.979zm-55.023 46.832a20.161 20.161 0 0 1 -20.138-20.139c0-5.861 2.421-13.765 6.169-20.137 4.148-7.05 9.239-11.094 13.969-11.094s9.821 4.044 13.969 11.095c3.748 6.372 6.169 14.276 6.169 20.137a20.161 20.161 0 0 1 -20.138 20.138zm23.3-16.17a23.674 23.674 0 0 0 .34-3.968c0-6.44-2.611-15.041-6.652-21.911a39.894 39.894 0 0 0 -3.6-5.176c3.407-9.227 10.201-18.794 17.592-18.794 5.879 0 13.853 7.05 18.173 20.509-9.959 4.474-17.29 19.5-19.339 30.828a19.86 19.86 0 0 1 -6.516-1.488zm31.724 29.61a22.318 22.318 0 0 1 -22.294-22.293c0-6.466 2.669-15.183 6.8-22.207 4.587-7.8 10.234-12.272 15.493-12.272s10.905 4.473 15.492 12.272c4.131 7.023 6.8 15.74 6.8 22.207a22.318 22.318 0 0 1 -22.292 22.292z"/><path d="m90.434 94.52a13.91 13.91 0 0 1 -13.895-13.895 1.75 1.75 0 0 0 -3.5 0 17.414 17.414 0 0 0 17.395 17.395 1.75 1.75 0 0 0 0-3.5z"/></svg>