<?xml version="1.0" encoding="iso-8859-1"?>
<!-- Generator: Adobe Illustrator 19.0.0, SVG Export Plug-In . SVG Version: 6.00 Build 0)  -->
<svg version="1.1" id="Capa_1" xmlns="http://www.w3.org/2000/svg" xmlns:xlink="http://www.w3.org/1999/xlink" x="0px" y="0px"
	 viewBox="0 0 480 480" style="enable-background:new 0 0 480 480;" xml:space="preserve">
<g>
	<g>
		<path d="M416.004,325.336c-0.093-41.108-19.439-79.799-52.272-104.536l-53.328-40c-14.067-10.605-22.356-27.184-22.4-44.8v-8h-16
			v-7.432c-0.052-18.743,7.398-36.728,20.688-49.944c12.406-12.338,19.36-29.127,19.312-46.624v-8h-8
			c-17.497-0.048-34.286,6.906-46.624,19.312c-4.696,4.729-8.959,9.869-12.736,15.36c-5.518-11.62-12.962-22.223-22.016-31.36
			C210.29,6.906,193.501-0.048,176.004,0h-8v8c-0.048,17.497,6.906,34.286,19.312,46.624c13.29,13.216,20.74,31.201,20.688,49.944
			V128h-16v8c-0.044,17.616-8.333,34.195-22.4,44.8l-53.328,40c-57.714,43.254-69.436,125.106-26.181,182.82
			c24.172,32.253,61.882,51.536,102.181,52.252c-5.342,6.911-8.251,15.393-8.272,24.128h16c0.039-10.568,6.998-19.861,17.128-22.872
			c-0.713,2.222-1.093,4.538-1.128,6.872v16h16v-16c0-4.418,3.582-8,8-8s8,3.582,8,8v16h16v-16c-0.035-2.334-0.415-4.65-1.128-6.872
			c10.13,3.011,17.089,12.304,17.128,22.872h16c-0.032-8.736-2.952-17.216-8.304-24.12
			C358.874,454.547,415.904,396.522,416.004,325.336z M268.692,46.624c7.213-7.244,16.485-12.086,26.552-13.864
			c-1.778,10.067-6.62,19.339-13.864,26.552c-16.302,16.209-25.44,38.267-25.376,61.256V99.88c0-2.72-0.112-5.432-0.304-8.136
			c-0.064-0.872-0.184-1.736-0.264-2.6c-0.176-1.84-0.36-3.672-0.624-5.504c-0.152-1.032-0.352-2.056-0.528-3.08
			c-0.288-1.648-0.576-3.288-0.936-4.928c-0.24-1.112-0.528-2.216-0.8-3.328c-0.24-0.96-0.432-1.928-0.696-2.888
			C256.323,61.037,261.996,53.359,268.692,46.624z M198.628,43.312c-7.247-7.21-12.089-16.484-13.864-26.552
			c10.067,1.778,19.339,6.62,26.552,13.864c18.341,18.386,28.656,43.286,28.688,69.256V128h-16v-23.432
			C224.069,81.579,214.931,59.521,198.628,43.312z M80.004,325.336c0.082-36.073,17.056-70.025,45.864-91.736l53.328-40
			c15.853-11.945,26.104-29.878,28.352-49.6h0.064c-1.813,25.781-12.896,50.034-31.2,68.28l-36.92,36.92
			c-47.253,47.166-47.324,123.708-0.158,170.961c4.334,4.342,8.992,8.348,13.934,11.983
			C109.17,415.042,80.081,372.635,80.004,325.336z M131.761,286.526c4.971-9.599,11.395-18.374,19.043-26.014l36.92-36.92
			c21.241-21.129,34.037-49.287,35.984-79.184c-1.413,37.423-12.585,73.826-32.408,105.6l-15.136,24.248
			c-21.011,33.504-28.37,73.792-20.56,112.56c3.109,15.445,10.42,29.732,21.128,41.288
			C125.218,401.427,105.084,338.04,131.761,286.526z M226.242,438.638c-27.742-5.547-49.427-27.232-54.974-54.974l0.024,0.008
			c-7.009-34.758-0.424-70.88,18.4-100.928l15.144-24.224c18.663-29.826,30.257-63.525,33.896-98.52h2.552
			c3.631,34.989,15.214,68.685,33.864,98.512l15.144,24.224c18.824,30.048,25.409,66.17,18.4,100.928
			C301.105,421.613,264.19,446.225,226.242,438.638z M324.404,386.816c7.81-38.768,0.451-79.056-20.56-112.56L288.7,250.032
			c-17.02-27.294-27.693-58.061-31.232-90.032h0.936c4.679,24.102,16.468,46.251,33.848,63.592l36.92,36.92
			c41.04,41.001,41.071,107.509,0.07,148.549c-7.638,7.645-16.41,14.066-26.006,19.035
			C313.958,416.547,321.283,402.262,324.404,386.816z M326.74,432.144c53.784-39.558,65.316-115.226,25.759-169.01
			c-3.635-4.942-7.641-9.6-11.983-13.934l-36.92-36.92c-18.304-18.246-29.387-42.499-31.2-68.28h0.064
			c2.246,19.721,12.494,37.653,28.344,49.6l53.328,40c50.635,37.943,60.924,109.75,22.98,160.386
			C364.231,411.176,346.776,424.399,326.74,432.144z"/>
	</g>
</g>
<g>
</g>
<g>
</g>
<g>
</g>
<g>
</g>
<g>
</g>
<g>
</g>
<g>
</g>
<g>
</g>
<g>
</g>
<g>
</g>
<g>
</g>
<g>
</g>
<g>
</g>
<g>
</g>
<g>
</g>
</svg>
