<svg height="511pt" viewBox="0 0 511.99931 511" width="511pt" xmlns="http://www.w3.org/2000/svg"><path d="m486.265625 74.953125c-1.65625-2.148437-7.238281-7.941406-7.636719-8.332031-3.714844-3.4375-7.738281-6.3125-11.933594-8.75l11.433594-30.476563c2.671875-7.113281.738282-15.003906-4.902344-20.09375-5.660156-5.085937-13.707031-6.179687-20.5-2.773437l-18.863281 9.4375-44.59375-12.742188c-7.664062-2.171875-15.617187.644532-20.183593 7.253906-4.53125 6.613282-4.359376 15.027344.453124 21.421876l24.234376 32.320312c-2.519532 1.894531-4.972657 3.910156-7.257813 6.203125-13.828125 13.828125-20.828125 32.902344-19.25 52.410156-.328125 50.828125-9.722656 106.832031-74.835937 171.945313-65.007813 65-122.40625 74.476562-170.027344 75.039062-5.464844-.503906-14.050782.050782-16.40625.246094-14.5 1.984375-27.613282 8.484375-37.917969 18.789062-2.34375 2.34375-4.402344 4.851563-6.324219 7.421876l-32.351562-24.253907c-6.40625-4.832031-14.800782-4.996093-21.421875-.429687-6.601563 4.53125-9.449219 12.457031-7.246094 20.160156l12.742187 44.582031-9.4375 18.871094c-3.394531 6.796875-2.3125 14.84375 2.777344 20.503906 3.570313 3.960938 8.503906 6.097657 13.589844 6.097657 2.179688 0 4.382812-.386719 6.511719-1.1875l30.742187-11.53125c2.496094 4.308593 5.457032 8.453124 9.007813 12.28125 0 0 5.792969 5.578124 7.726562 7.0625 21.503907 17.523437 49.589844 25.851562 81.34375 25.851562 71.847657 0 162.457031-42.667969 237.996094-118.199219 108.9375-108.9375 149.496094-249.214843 92.53125-319.128906zm-96.59375-52.328125 39.339844 11.234375c4.441406 1.269531 9.128906.839844 13.277343-1.214844l14.796876-7.410156-9.476563 25.238281c-11.78125-2.570312-24.074219-1.894531-35.535156 2.023438zm-339.433594 425.359375-25.472656 9.570313 7.398437-14.796876c2.066407-4.125 2.496094-8.84375 1.238282-13.253906l-11.246094-39.355468 29.957031 22.464843c-3.828125 11.371094-4.464843 23.550781-1.882812 35.289063-.011719 0 0 .050781.007812.082031zm329.035157-68.386719c-101.609376 101.601563-229.839844 141.554688-292.160157 90.78125-1.605469-1.25-5.792969-5.34375-5.8125-5.34375-3.921875-4.257812-6.804687-9.066406-8.851562-14.132812l-.15625-.398438c-4.59375-11.789062-4-25.1875 1.628906-36.753906l.625-1.277344c2.109375-3.992187 4.644531-7.808594 8-11.167968 7.113281-7.113282 16.191406-11.613282 25.578125-12.925782 3.671875-.253906 10.019531-.488281 12.546875-.191406l.664063.089844h.664062c48.839844-.5 114.003906-10.160156 184.890625-81.046875 70.710937-70.710938 80.542969-134.09375 80.820313-186.75l-.039063-.960938c-1.199219-13.632812 3.640625-27 13.292969-36.640625 2.90625-2.90625 6.183594-5.171875 9.570312-7.144531l2.730469-1.332031c11.558594-5.617188 24.964844-6.199219 36.765625-1.636719l3.542969 1.382813c3.816406 1.875 7.492187 4.113281 10.753906 7.113281.042969.042969 4.433594 4.503906 5.886719 6.40625 50.605468 62.089843 10.65625 190.332031-90.941406 291.929687zm0 0"/><path d="m417.613281 163.675781c-5.589843-.625-10.664062 3.449219-11.28125 9.082031-9.546875 88.078126-77.71875 174.632813-169.65625 215.367188-5.171875 2.292969-7.492187 8.332031-5.210937 13.5 1.6875 3.816406 5.433594 6.089844 9.367187 6.089844 1.378907 0 2.78125-.277344 4.132813-.882813 99.929687-44.273437 171.246094-135.289062 181.714844-231.875.613281-5.628906-3.441407-10.675781-9.066407-11.28125zm0 0"/><path d="m203.042969 400.089844c-13.46875 3.589844-26.988281 5.609375-40.148438 5.976562-5.660156.171875-10.101562 4.882813-9.949219 10.519532.164063 5.558593 4.707032 9.949218 10.222657 9.949218h.296875c14.75-.429687 29.835937-2.671875 44.847656-6.671875 5.457031-1.453125 8.710938-7.0625 7.246094-12.527343-1.453125-5.46875-7.101563-8.699219-12.515625-7.246094zm0 0"/></svg>